<svg width="28" height="34" viewBox="0 0 28 34" fill="none" xmlns="http://www.w3.org/2000/svg">
<path d="M24.5 21.25V7.08333C24.5 6.33189 24.2542 5.61122 23.8166 5.07986C23.379 4.54851 22.7855 4.25 22.1667 4.25H5.83333C5.21449 4.25 4.621 4.54851 4.18342 5.07986C3.74583 5.61122 3.5 6.33189 3.5 7.08333V26.9167C3.5 27.6681 3.74583 28.3888 4.18342 28.9201C4.621 29.4515 5.21449 29.75 5.83333 29.75H17.5M24.5 21.25V21.4937C24.4999 22.2451 24.2539 22.9656 23.8163 23.4968L19.3503 28.9198C18.9129 29.4512 18.3195 29.7498 17.7007 29.75H17.5M24.5 21.25H19.8333C19.2145 21.25 18.621 21.5485 18.1834 22.0799C17.7458 22.6112 17.5 23.3319 17.5 24.0833V29.75M8.16667 9.91667H19.8333M8.16667 15.5833H19.8333M8.16667 21.25H12.8333" stroke="current" stroke-width="2" stroke-linecap="round" stroke-linejoin="round"/>
</svg>
