<svg width="24" height="24" viewBox="0 0 24 24" fill="none" xmlns="http://www.w3.org/2000/svg">
<path d="M15.97 3.58557C16.3451 3.21063 16.8537 3 17.384 3C17.9143 3 18.4229 3.21063 18.798 3.58557L21.273 6.06057C21.4588 6.2463 21.6062 6.46682 21.7068 6.70952C21.8073 6.95222 21.8591 7.21236 21.8591 7.47507C21.8591 7.73778 21.8073 7.99792 21.7068 8.24063C21.6062 8.48333 21.4588 8.70385 21.273 8.88957L9.38 20.7826L3 21.8586L4.077 15.4786L15.97 3.58557ZM15.741 6.64257L18.216 9.11757L19.859 7.47457L17.384 5.00057L15.741 6.64257ZM16.801 10.5326L14.327 8.05757L5.943 16.4416L5.44 19.4186L8.417 18.9166L16.802 10.5316L16.801 10.5326Z" fill="current"/>
</svg>
