<svg width="140" height="140" viewBox="0 0 140 140" fill="none" xmlns="http://www.w3.org/2000/svg">
<path d="M70.3333 37.9167C72.3458 37.9167 73.9792 39.5501 73.9792 41.5626V78.0209C73.9792 78.9878 73.5951 79.9152 72.9113 80.5989C72.2276 81.2826 71.3003 81.6667 70.3333 81.6667C69.3664 81.6667 68.4391 81.2826 67.7553 80.5989C67.0716 79.9152 66.6875 78.9878 66.6875 78.0209V41.5626C66.6875 39.5501 68.3208 37.9167 70.3333 37.9167ZM70.3333 99.1667C71.8804 99.1667 73.3642 98.5522 74.4581 97.4582C75.5521 96.3642 76.1667 94.8805 76.1667 93.3334C76.1667 91.7863 75.5521 90.3026 74.4581 89.2086C73.3642 88.1147 71.8804 87.5001 70.3333 87.5001C68.7862 87.5001 67.3025 88.1147 66.2085 89.2086C65.1146 90.3026 64.5 91.7863 64.5 93.3334C64.5 94.8805 65.1146 96.3642 66.2085 97.4582C67.3025 98.5522 68.7862 99.1667 70.3333 99.1667ZM12 70.0001C12 37.7826 38.1158 11.6667 70.3333 11.6667C102.551 11.6667 128.667 37.7826 128.667 70.0001C128.667 102.218 102.551 128.333 70.3333 128.333C38.1158 128.333 12 102.218 12 70.0001ZM70.3333 18.9584C42.1437 18.9584 19.2917 41.8105 19.2917 70.0001C19.2917 98.1897 42.1437 121.042 70.3333 121.042C98.5229 121.042 121.375 98.1897 121.375 70.0001C121.375 41.8105 98.5229 18.9584 70.3333 18.9584Z" fill="#FF5D3A"/>
</svg>
