<svg width="36" height="36" viewBox="0 0 36 36" fill="none" xmlns="http://www.w3.org/2000/svg">
<path d="M9.1995 31.5C7.4325 31.5 6 30.03 6 28.215V15.012C6 14.0145 6.4425 13.0695 7.2 12.447L16.0005 5.22C16.5628 4.75438 17.2699 4.49959 18 4.49959C18.7301 4.49959 19.4372 4.75438 19.9995 5.22L28.7985 12.447C29.5575 13.0695 30 14.0145 30 15.012V28.215C30 30.03 28.5675 31.5 26.8005 31.5H9.1995Z" stroke="current" stroke-width="2" stroke-linecap="round" stroke-linejoin="round"/>
<path d="M14.25 31.5V23.25C14.25 22.4544 14.5661 21.6913 15.1287 21.1287C15.6913 20.5661 16.4544 20.25 17.25 20.25H18.75C19.5456 20.25 20.3087 20.5661 20.8713 21.1287C21.4339 21.6913 21.75 22.4544 21.75 23.25V31.5" stroke="current" stroke-width="2" stroke-linecap="round" stroke-linejoin="round"/>
</svg>
