<svg width="32" height="32" viewBox="0 0 32 32" fill="none" xmlns="http://www.w3.org/2000/svg">
<path d="M16.0001 29.3333C23.3641 29.3333 29.3334 23.364 29.3334 16C29.3334 8.63601 23.3641 2.66667 16.0001 2.66667C8.63608 2.66667 2.66675 8.63601 2.66675 16C2.66675 23.364 8.63608 29.3333 16.0001 29.3333Z" stroke="current" stroke-width="2" stroke-linecap="round" stroke-linejoin="round"/>
<path d="M16.0001 15.3333C16.8841 15.3333 17.732 14.9821 18.3571 14.357C18.9822 13.7319 19.3334 12.8841 19.3334 12C19.3334 11.1159 18.9822 10.2681 18.3571 9.64298C17.732 9.01786 16.8841 8.66667 16.0001 8.66667C15.116 8.66667 14.2682 9.01786 13.6431 9.64298C13.0179 10.2681 12.6667 11.1159 12.6667 12C12.6667 12.8841 13.0179 13.7319 13.6431 14.357C14.2682 14.9821 15.116 15.3333 16.0001 15.3333Z" stroke="current" stroke-width="2" stroke-linejoin="round"/>
<path d="M6.6814 25.5547C6.91073 22.0807 9.8014 19.3333 13.3334 19.3333H18.6667C22.1941 19.3333 25.0821 22.0733 25.3181 25.5407" stroke="current" stroke-width="2" stroke-linecap="round" stroke-linejoin="round"/>
</svg>
