<svg width="24" height="24" viewBox="0 0 24 24" fill="none" xmlns="http://www.w3.org/2000/svg">
<path d="M17.6498 6.35001C16.8116 5.50428 15.7942 4.85762 14.6726 4.4578C13.551 4.05798 12.3539 3.9152 11.1698 4.04001C7.49978 4.41001 4.47978 7.39001 4.06978 11.06C3.51978 15.91 7.26978 20 11.9998 20C13.5099 20 14.989 19.5715 16.2653 18.7643C17.5415 17.9572 18.5626 16.8044 19.2098 15.44C19.5298 14.77 19.0498 14 18.3098 14C17.9398 14 17.5898 14.2 17.4298 14.53C16.8492 15.779 15.8561 16.79 14.6177 17.3928C13.3793 17.9957 11.971 18.1536 10.6298 17.84C8.40978 17.35 6.61978 15.54 6.14978 13.32C5.95221 12.4423 5.9545 11.5313 6.15647 10.6546C6.35845 9.77787 6.75494 8.95776 7.31663 8.25493C7.87831 7.55211 8.59082 6.98454 9.40145 6.59423C10.2121 6.20392 11.1001 6.00084 11.9998 6.00001C13.6598 6.00001 15.1398 6.69001 16.2198 7.78001L14.7098 9.29001C14.0798 9.92001 14.5198 11 15.4098 11H18.9998C19.5498 11 19.9998 10.55 19.9998 10V6.41001C19.9998 5.52001 18.9198 5.07001 18.2898 5.70001L17.6498 6.35001Z" fill="#757575"/>
</svg>
